#N canvas 328 98 614 607 10;
#X symbolatom 182 102 8 0 0 0 ready? __#0isReady x;
#X obj -49 64 r cfPlayer\$1Ready;
#X obj -20 189 s __\$0isReady;
#X msg -49 157 set no;
#X msg 7 158 set yes;
#X symbolatom 182 119 8 0 0 0 Cache_fill __#0CacheFill x;
#X obj -45 222 r cfPlayer\$1CacheFill;
#X obj -45 246 * 100;
#X obj -45 292 s __\$0CacheFill;
#X msg -45 269 set \$1%;
#X symbolatom 182 136 8 0 0 0 Sample_rate __#0Srate x;
#X obj 132 186 r cfPlayer\$1Srate;
#X obj 132 232 s __\$0Srate;
#X msg 132 209 set \$1Hz;
#X obj 120 264 r cfPlayer\$1Len;
#X msg 120 287 set \$1s;
#X obj 120 310 s __\$0Len;
#X symbolatom 182 153 8 0 0 0 Length __#0Len x;
#X obj 333 264 print __CueFrogPlayerStatus \$1;
#X obj -43 115 moses 1;
#X connect 1 0 18 0;
#X connect 1 0 19 0;
#X connect 3 0 2 0;
#X connect 4 0 2 0;
#X connect 6 0 7 0;
#X connect 7 0 9 0;
#X connect 9 0 8 0;
#X connect 11 0 13 0;
#X connect 13 0 12 0;
#X connect 14 0 15 0;
#X connect 15 0 16 0;
#X connect 19 0 3 0;
#X connect 19 1 4 0;
#X coords 0 -1 1 1 142 70 2 100 100;
