#N canvas 3 54 1274 707 10;
#X obj -70 -43 ctlin;
#X obj 41 878 ctlout;
#X obj -29 840 spigot;
#X obj 161 -42 inlet;
#X text 210 -39 List of MIDI cofiguration data;
#X obj -204 435 s cfPlayer\$1SetFader;
#X obj -54 73 s __\$0CCNum;
#X obj -140 73 s __\$0CCVal;
#X floatatom 160 104 5 0 0 0 MIDI_Ch __#0MIDI_Ch __#0x;
#X floatatom 206 125 5 0 0 0 Fader __#0Fader __#0x;
#X floatatom 206 144 5 0 0 0 Play/Pause __#0PlayPause __#0x;
#X floatatom 206 163 5 0 0 0 Stop __#0Stop __#0x;
#X floatatom 206 182 5 0 0 0 Loop __#0Loop __#0x;
#X floatatom 206 201 5 0 0 0 Speed __#0Speed __#0x;
#X floatatom 206 220 5 0 0 0 Speed_Reset __#0SpeedRst __#0x;
#X obj 271 5 unpack f f f f f f f;
#X obj -118 314 r __\$0CCNum;
#X obj -54 48 spigot;
#X obj -140 49 spigot;
#X obj -38 -14 ==;
#X obj -20 -43 r __\$0MIDI_Ch;
#X obj -204 314 r __\$0CCVal;
#X obj -100 336 r __\$0Fader;
#X obj -118 360 ==;
#X obj -204 388 spigot;
#X obj -204 413 / 1.27;
#X obj -205 488 r cfPlayer\$1Fader;
#X obj -205 575 ctlout;
#X obj -166 552 r __\$0MIDI_Ch;
#X obj -205 509 * 1.27;
#X obj -186 530 r __\$0Fader;
#X obj 364 71 s __\$0SpeedRst;
#X obj 338 92 s __\$0Speed;
#X obj 321 112 s __\$0Loop;
#X obj 307 133 s __\$0Stop;
#X obj 296 156 s __\$0PlayPause;
#X obj 290 177 s __\$0Fader;
#X obj 282 198 s __\$0MIDI_Ch;
#X obj 163 314 r __\$0CCNum;
#X obj 77 314 r __\$0CCVal;
#X obj 163 360 ==;
#X obj 77 388 spigot;
#X obj 181 336 r __\$0PlayPause;
#X msg -105 706 0;
#X obj 60 830 r __\$0PlayPause;
#X obj 80 855 r __\$0MIDI_Ch;
#X obj 77 621 s cfPlayer\$1SetPlay;
#X obj 127 601 s cfPlayer\$1SetPlay;
#X obj 177 581 s cfPlayer\$1SetPause;
#X obj 228 561 print CueFrogController id \$1: unknown Transport state
;
#X obj 77 541 select stop pause play;
#X msg 77 517 symbol stop;
#X msg 111 495 set symbol \$1;
#X msg 26 712 1;
#X msg 26 761 127;
#X obj 443 314 r __\$0CCNum;
#X obj 357 314 r __\$0CCVal;
#X obj 443 360 ==;
#X obj 357 388 spigot;
#X obj 461 336 r __\$0Stop;
#X obj 380 412 s cfPlayer\$1SetStop;
#X msg 62 735 0;
#X obj -123 670 r cfPlayer\$1Play;
#X obj 0 665 r cfPlayer\$1Pause;
#X obj 131 673 r cfPlayer\$1Stop;
#X obj 95 409 r cfPlayer\$1Play;
#X obj 218 409 r cfPlayer\$1Pause;
#X obj 228 451 r cfPlayer\$1Stop;
#X obj 95 429 symbol play;
#X obj 218 429 symbol pause;
#X obj 228 471 symbol stop;
#X obj 547 314 r cfPlayer\$1Ready;
#X obj 547 336 * 127;
#X obj 543 450 r __\$0Stop;
#X obj 563 475 r __\$0MIDI_Ch;
#X obj 524 500 ctlout;
#X obj 503 474 float;
#X msg 380 435 bang;
#X text 529 414 Stop button LED represents readanysf~ readiness.;
#X obj 130 -2 loadbang;
#X obj 130 22 \$1;
#X obj 329 655 r __\$0CCVal;
#X obj 418 655 r __\$0CCNum;
#X obj 436 679 r __\$0Speed;
#X obj 418 703 ==;
#X obj 329 732 spigot;
#X obj 329 814 s cfPlayer\$1SetSpeed;
#X obj 329 839 r cfPlayer\$1Speed;
#X obj 329 962 ctlout;
#X obj 348 918 r __\$0Speed;
#X obj 368 940 r __\$0MIDI_Ch;
#X obj 558 667 r __\$0CCNum;
#X obj 558 715 ==;
#X obj 576 691 r __\$0SpeedRst;
#X obj 558 744 change;
#X obj -170 223 print New CueFrogController instance;
#X obj -38 439 loadbang;
#X msg -38 468 set symbol stop;
#X text -86 406 Initial state is Stop.;
#X obj 654 4 list split 1;
#X obj 651 123 ctlout;
#X obj 685 40 list split 1;
#X msg 641 71 0;
#X obj 787 3 list;
#X text 528 -28 Zero controllers:;
#X text 231 521 State machine to simplify play/pause/stop transitions.
;
#X obj 329 774 expr pow(1.029302237 \, $f1);
#X obj 329 753 - 64;
#X obj 329 862 expr log($f1)/log(1.029302237);
#X obj 329 895 + 64;
#X obj -163 750 metro 1000;
#X obj -156 783 bang;
#X text -233 649 Play/Pause button LED flashes when paused. Steady
light indicates play.;
#X msg 558 780 1;
#X msg -156 805 127;
#X msg -108 805 0;
#X obj -108 784 delay 666;
#X obj 471 6 unpack f f f f f f f;
#X obj 514 125 ctlout;
#X msg 486 92 0;
#X msg 575 88 64;
#X symbolatom 206 104 5 0 0 0 - - x;
#X msg 149 56 set ID\$1;
#X connect 0 0 18 0;
#X connect 0 1 17 0;
#X connect 0 2 19 0;
#X connect 2 0 1 0;
#X connect 3 0 15 0;
#X connect 3 0 117 0;
#X connect 15 0 37 0;
#X connect 15 1 36 0;
#X connect 15 2 35 0;
#X connect 15 3 34 0;
#X connect 15 4 33 0;
#X connect 15 5 32 0;
#X connect 15 6 31 0;
#X connect 16 0 23 0;
#X connect 17 0 6 0;
#X connect 18 0 7 0;
#X connect 19 0 17 1;
#X connect 19 0 18 1;
#X connect 20 0 19 1;
#X connect 21 0 24 0;
#X connect 22 0 23 1;
#X connect 23 0 24 1;
#X connect 24 0 25 0;
#X connect 25 0 5 0;
#X connect 26 0 29 0;
#X connect 28 0 27 2;
#X connect 29 0 27 0;
#X connect 30 0 27 1;
#X connect 38 0 40 0;
#X connect 39 0 41 0;
#X connect 40 0 41 1;
#X connect 41 0 51 0;
#X connect 42 0 40 1;
#X connect 43 0 2 1;
#X connect 43 0 110 0;
#X connect 44 0 1 1;
#X connect 45 0 1 2;
#X connect 50 0 46 0;
#X connect 50 1 47 0;
#X connect 50 2 48 0;
#X connect 50 3 49 0;
#X connect 51 0 50 0;
#X connect 52 0 51 0;
#X connect 53 0 2 1;
#X connect 53 0 110 0;
#X connect 54 0 1 0;
#X connect 55 0 57 0;
#X connect 56 0 58 0;
#X connect 57 0 58 1;
#X connect 58 0 60 0;
#X connect 58 0 77 0;
#X connect 59 0 57 1;
#X connect 61 0 1 0;
#X connect 62 0 43 0;
#X connect 62 0 54 0;
#X connect 63 0 53 0;
#X connect 64 0 43 0;
#X connect 64 0 61 0;
#X connect 65 0 68 0;
#X connect 66 0 69 0;
#X connect 67 0 70 0;
#X connect 68 0 52 0;
#X connect 69 0 52 0;
#X connect 70 0 52 0;
#X connect 71 0 72 0;
#X connect 72 0 76 0;
#X connect 73 0 75 1;
#X connect 74 0 75 2;
#X connect 76 0 75 0;
#X connect 77 0 76 0;
#X connect 79 0 80 0;
#X connect 80 0 95 0;
#X connect 80 0 122 0;
#X connect 81 0 85 0;
#X connect 82 0 84 0;
#X connect 83 0 84 1;
#X connect 84 0 85 1;
#X connect 85 0 107 0;
#X connect 87 0 108 0;
#X connect 89 0 88 1;
#X connect 90 0 88 2;
#X connect 91 0 92 0;
#X connect 92 0 94 0;
#X connect 93 0 92 1;
#X connect 94 0 113 0;
#X connect 96 0 97 0;
#X connect 97 0 51 0;
#X connect 99 0 100 2;
#X connect 99 1 101 0;
#X connect 101 0 100 1;
#X connect 101 0 102 0;
#X connect 101 1 103 0;
#X connect 102 0 100 0;
#X connect 103 0 101 0;
#X connect 106 0 86 0;
#X connect 107 0 106 0;
#X connect 108 0 109 0;
#X connect 109 0 88 0;
#X connect 110 0 111 0;
#X connect 110 0 116 0;
#X connect 111 0 114 0;
#X connect 113 0 86 0;
#X connect 114 0 2 0;
#X connect 115 0 2 0;
#X connect 116 0 115 0;
#X connect 117 0 118 2;
#X connect 117 1 118 1;
#X connect 117 1 119 0;
#X connect 117 2 118 1;
#X connect 117 2 119 0;
#X connect 117 3 118 1;
#X connect 117 3 119 0;
#X connect 117 4 118 1;
#X connect 117 4 119 0;
#X connect 117 5 118 1;
#X connect 117 5 120 0;
#X connect 117 6 118 1;
#X connect 117 6 119 0;
#X connect 119 0 118 0;
#X connect 120 0 118 0;
#X connect 122 0 121 0;
#X coords 0 -1 1 1 147 140 2 100 100;
