#N canvas 0 54 1280 710 10;
#X obj 9 39 textfile;
#X obj 539 41 textfile;
#X msg -141 -186 write /tmp/test.txt;
#X obj -95 -366 until;
#X obj -79 -342 f;
#X obj -79 -427 bng 15 250 50 0 empty empty empty 17 7 0 10 -262144
-1 -1;
#X obj -79 -407 t b b;
#X msg -44 -383 0;
#X msg -93 -149 clear;
#X obj -38 -343 + 1;
#X obj 368 -328 bng 40 250 50 0 empty empty + 8 18 0 40 -262144 -1
-1;
#X obj 266 -81 until;
#X msg 444 -46 rewind;
#X obj 266 37 f;
#X obj 313 27 + 1;
#X msg 284 -44 0;
#X obj 120 163 CueFrogPlaylistLine;
#X obj 120 183 CueFrogPlaylistLine;
#X obj 120 203 CueFrogPlaylistLine;
#X obj 120 223 CueFrogPlaylistLine;
#X obj 120 243 CueFrogPlaylistLine;
#X obj 336 56 -;
#X obj -56 114 spigot;
#X obj -4 114 spigot;
#X obj 48 114 spigot;
#X obj 101 114 spigot;
#X obj 153 114 spigot;
#X obj 323 -328 bng 40 250 50 0 empty empty _ 8 -1 0 40 -262144 -1
-1;
#X obj 407 -268 t b b b b;
#X obj 244 -268 t b b b b;
#X obj 354 -98 f;
#X obj 191 -190 f;
#X obj 476 -192 f;
#X obj 191 -169 - 1;
#X obj 476 -170 + 1;
#X obj 637 114 spigot;
#X obj 689 114 spigot;
#X obj 741 114 spigot;
#X obj 794 114 spigot;
#X obj 846 114 spigot;
#X obj 69 -158 -;
#X msg 11 -305 add;
#X obj 89 -117 random 2;
#X obj 59 -179 100;
#X obj 87 -179 random 2101;
#X obj 69 -137 / 10;
#X obj 108 -98 random 2;
#X obj 128 -78 random 101;
#X obj 128 -56 / 100;
#X msg 148 -36 0;
#X msg 30 -281 /holle/ridi/dudl/dö;
#X msg 50 -232 dideldum;
#X obj 30 -256 symbol;
#X obj 50 -206 symbol;
#X obj -44 39 print;
#X obj 17 17 list trim;
#X obj 888 -293 bng 15 250 50 0 empty empty + 17 7 0 20 -262144 -1
-1;
#X obj 786 -81 until;
#X msg 964 -46 rewind;
#X msg 804 3 0;
#X msg 894 -114 bang;
#X obj 818 -293 bng 15 250 50 0 empty empty _ -14 -3 0 20 -262144 -1
-1;
#X obj 888 -266 t b b b b;
#X obj 818 -266 t b b b b;
#X obj 874 -139 f;
#X obj 838 -190 f;
#X obj 908 -192 f;
#X obj 838 -169 - 1;
#X obj 908 -170 + 1;
#X obj 476 -223 spigot;
#X obj 191 -223 spigot;
#X floatatom 379 -4 5 0 0 0 - - -;
#X floatatom 281 62 5 0 0 0 - - -;
#X floatatom 406 54 5 0 0 0 - - -;
#X text 94 203 ==>;
#X text 921 201 <==;
#X msg -95 -387 45;
#X obj 20 -6 pack s s s f f f f f f f f;
#X obj 20 -338 t b b b b b b b b b b b f;
#X obj -79 -315 t f f;
#X obj 857 65 pack s s s f f f f f f f f;
#X msg 860 28 0;
#X obj 515 97 > 0;
#X obj 379 14 > 0;
#X msg 563 -31 read /tmp/test.txt;
#X obj 271 97 == -1;
#X obj 320 99 == 0;
#X obj 372 97 == 1;
#X obj 425 97 == 2;
#X obj 477 103 == 3;
#X connect 1 0 35 0;
#X connect 1 0 36 0;
#X connect 1 0 37 0;
#X connect 1 0 38 0;
#X connect 1 0 39 0;
#X connect 1 1 11 1;
#X connect 2 0 0 0;
#X connect 3 0 4 0;
#X connect 4 0 79 0;
#X connect 5 0 6 0;
#X connect 6 0 76 0;
#X connect 6 1 7 0;
#X connect 7 0 4 1;
#X connect 8 0 0 0;
#X connect 9 0 4 1;
#X connect 10 0 28 0;
#X connect 11 0 1 0;
#X connect 11 0 13 0;
#X connect 12 0 1 0;
#X connect 13 0 14 0;
#X connect 13 0 21 0;
#X connect 13 0 22 0;
#X connect 13 0 23 0;
#X connect 13 0 24 0;
#X connect 13 0 25 0;
#X connect 13 0 26 0;
#X connect 13 0 72 0;
#X connect 14 0 13 1;
#X connect 15 0 13 1;
#X connect 21 0 73 0;
#X connect 21 0 82 0;
#X connect 21 0 85 0;
#X connect 21 0 86 0;
#X connect 21 0 87 0;
#X connect 21 0 88 0;
#X connect 21 0 89 0;
#X connect 22 0 16 0;
#X connect 23 0 17 0;
#X connect 24 0 18 0;
#X connect 25 0 19 0;
#X connect 26 0 20 0;
#X connect 27 0 29 0;
#X connect 28 0 11 0;
#X connect 28 1 69 0;
#X connect 28 2 15 0;
#X connect 28 3 12 0;
#X connect 29 0 11 0;
#X connect 29 1 70 0;
#X connect 29 2 15 0;
#X connect 29 3 12 0;
#X connect 30 0 21 1;
#X connect 30 0 31 1;
#X connect 30 0 32 1;
#X connect 30 0 71 0;
#X connect 31 0 33 0;
#X connect 32 0 34 0;
#X connect 33 0 30 0;
#X connect 34 0 30 0;
#X connect 35 0 16 1;
#X connect 36 0 17 1;
#X connect 37 0 18 1;
#X connect 38 0 19 1;
#X connect 39 0 20 1;
#X connect 40 0 45 0;
#X connect 41 0 77 0;
#X connect 42 0 77 4;
#X connect 43 0 40 0;
#X connect 44 0 40 1;
#X connect 45 0 77 3;
#X connect 46 0 77 5;
#X connect 47 0 48 0;
#X connect 48 0 77 6;
#X connect 49 0 77 7;
#X connect 50 0 52 0;
#X connect 51 0 53 0;
#X connect 52 0 77 1;
#X connect 53 0 77 2;
#X connect 55 0 0 0;
#X connect 56 0 62 0;
#X connect 60 0 57 1;
#X connect 61 0 63 0;
#X connect 62 0 57 0;
#X connect 62 1 66 0;
#X connect 62 2 59 0;
#X connect 62 3 58 0;
#X connect 63 0 57 0;
#X connect 63 1 65 0;
#X connect 63 2 59 0;
#X connect 63 3 58 0;
#X connect 64 0 66 1;
#X connect 64 0 65 1;
#X connect 65 0 67 0;
#X connect 66 0 68 0;
#X connect 67 0 64 0;
#X connect 68 0 64 0;
#X connect 69 0 32 0;
#X connect 70 0 31 0;
#X connect 71 0 83 0;
#X connect 76 0 3 0;
#X connect 77 0 54 0;
#X connect 77 0 55 0;
#X connect 78 0 41 0;
#X connect 78 1 50 0;
#X connect 78 2 51 0;
#X connect 78 3 43 0;
#X connect 78 4 44 0;
#X connect 78 5 42 0;
#X connect 78 6 46 0;
#X connect 78 7 47 0;
#X connect 78 8 49 0;
#X connect 78 11 77 10;
#X connect 79 0 9 0;
#X connect 79 1 78 0;
#X connect 80 0 16 1;
#X connect 81 0 80 0;
#X connect 82 0 69 1;
#X connect 83 0 70 1;
#X connect 84 0 1 0;
#X connect 85 0 22 1;
#X connect 85 0 35 1;
#X connect 86 0 23 1;
#X connect 86 0 36 1;
#X connect 87 0 24 1;
#X connect 87 0 37 1;
#X connect 88 0 25 1;
#X connect 88 0 38 1;
#X connect 89 0 26 1;
#X connect 89 0 39 1;
