#N canvas 3 54 450 300 10;
#X obj 100 100 bng 60 250 50 0 empty empty STOP_ALL 3 30 0 12 -258113
-260097 -262144;
#X obj 228 82 s cfPlayer\$1SetStop;
#X obj 218 107 s cfPlayer\$2SetStop;
#X obj 203 131 s cfPlayer\$3SetStop;
#X obj 193 156 s cfPlayer\$4SetStop;
#X obj 175 180 s cfPlayer\$5SetStop;
#X obj 165 205 s cfPlayer\$6SetStop;
#X obj 150 229 s cfPlayer\$7SetStop;
#X obj 140 254 s cfPlayer\$8SetStop;
#X connect 0 0 1 0;
#X connect 0 0 2 0;
#X connect 0 0 3 0;
#X connect 0 0 4 0;
#X connect 0 0 5 0;
#X connect 0 0 6 0;
#X connect 0 0 7 0;
#X connect 0 0 8 0;
#X coords 0 -1 1 1 60 60 2 100 100;
