#N canvas 3 95 674 481 10;
#X obj 355 255 vbap 0 0 30;
#X floatatom 377 189 5 0 0 0 - - -;
#X floatatom 400 205 5 0 0 0 - - -;
#X floatatom 419 231 5 0 0 0 - - -;
#X obj 355 311 route 0 1 2 3 4;
#X floatatom 355 431 5 0 0 0 - - -;
#X floatatom 372 412 5 0 0 0 - - -;
#X floatatom 389 393 5 0 0 0 - - -;
#X floatatom 407 371 5 0 0 0 - - -;
#X floatatom 424 349 5 0 0 0 - - -;
#X obj 269 196 metro 100;
#X obj 270 152 tgl 15 0 empty empty empty 17 7 0 10 -262144 -1 -1 0
1;
#X msg 347 165 define_loudspeakers 2 0 30 120 -120 -30;
#X text 179 41 This code doesn't do anything interesting at the moment.
It's a placeholder for an upcoming panning automation module based
on the vbap extension from http://puredata.info/downloads/vbap.;
#X text 179 106 My code is not currently in any presentable shape \,
but the idea is to make panner settings and panning movements over
time a part of the playlist automation.;
#X connect 0 0 4 0;
#X connect 1 0 0 1;
#X connect 2 0 0 2;
#X connect 3 0 0 3;
#X connect 4 0 5 0;
#X connect 4 1 6 0;
#X connect 4 2 7 0;
#X connect 4 3 8 0;
#X connect 4 4 9 0;
#X connect 10 0 0 0;
#X connect 11 0 10 0;
#X connect 12 0 0 0;
