#N canvas 3 58 1009 310 10;
#X obj 519 44 unpack s s f f f f f f f f;
#X symbolatom 133 100 45 0 0 0 - - -;
#X symbolatom 450 100 20 0 0 0 - - -;
#X floatatom 592 100 5 0 0 0 - - -;
#X floatatom 629 100 1 0 0 0 - - -;
#X floatatom 639 100 1 0 0 0 - - -;
#X floatatom 649 100 5 0 0 0 - - -;
#X floatatom 686 100 5 0 0 0 - - -;
#X floatatom 723 100 5 0 0 0 - - -;
#X floatatom 760 100 5 0 0 0 - - -;
#X floatatom 797 100 5 0 0 0 - - -;
#X floatatom 100 100 3 0 0 0 - - -;
#X obj 474 15 inlet;
#X obj 519 15 inlet;
#X text 124 99 :;
#X connect 0 0 1 0;
#X connect 0 1 2 0;
#X connect 0 2 3 0;
#X connect 0 3 4 0;
#X connect 0 4 5 0;
#X connect 0 5 6 0;
#X connect 0 6 7 0;
#X connect 0 7 8 0;
#X connect 0 8 9 0;
#X connect 0 9 10 0;
#X connect 12 0 11 0;
#X connect 13 0 0 0;
#X coords 0 -1 1 1 800 14 2 100 100;
