#N canvas 3 55 1265 710 10;
#X msg 18 822 1 81 65 73 0 1 33;
#X msg 320 822 1 83 67 75 0 3 35;
#X msg 471 822 1 84 68 76 0 4 36;
#X msg 622 822 1 85 69 77 0 5 37;
#X obj -51 805 loadbang;
#X obj 18 27 CueFrogPlayer~ 42;
#X msg 169 822 1 82 66 74 0 2 34;
#X obj 18 -30 CueFrogPlaylist 42;
#X obj -68 -87 loadbang;
#X obj -68 -67 delay 1000;
#X obj 18 844 CueFrogController 42;
#X obj 622 27 CueFrogPlayer6~ 46;
#X obj -50 27 CueFrogStopAllButton 42 43 44 45 46 47;
#X msg 773 822 1 86 70 78 0 6 38;
#X floatatom 984 282 5 0 0 0 - - -;
#X floatatom 1065 282 5 0 0 0 - - -;
#X obj 954 669 *~;
#X obj 923 690 *~;
#X obj 892 710 *~;
#X obj 861 730 *~;
#X obj 827 751 *~;
#X obj 793 771 *~;
#X obj 985 649 *~;
#X obj 932 381 hsl 128 8 0.01 1 1 0 empty empty C 135 5 0 10 -203904
-258113 -1 0 1;
#X obj 932 447 hsl 128 8 0.01 1 1 0 empty empty R 135 5 0 10 -203904
-258113 -1 11067 1;
#X obj 932 425 hsl 128 8 0.01 1 1 0 empty empty Rb 135 5 0 10 -203904
-258113 -1 0 1;
#X obj 932 414 hsl 128 8 0.01 1 1 0 empty empty Lb 135 5 0 10 -203904
-258113 -1 0 1;
#X obj 932 403 hsl 128 8 0.01 1 1 0 empty empty Ls 135 5 0 10 -203904
-258113 -1 0 1;
#X obj 932 392 hsl 128 8 0.01 1 1 0 empty empty L 135 5 0 10 -203904
-258113 -1 0 1;
#X obj 932 458 hsl 128 8 0.01 1 1 0 empty empty Up 135 5 0 10 -203904
-258113 -1 4695 1;
#X msg 925 130 bang;
#X msg 930 153 stop;
#X obj 971 224 float;
#X obj 984 258 mod 360;
#X obj 976 -3 hsl 128 15 -5 5 0 0 empty empty L<------SPEED----->R
2 -8 0 10 -203904 -1 -1 8650 1;
#X obj 982 21 vsl 15 128 0 1 0 0 empty empty Elevation 25 60 0 10 -203904
-1 -1 0 1;
#X obj 975 159 hsl 128 15 0 100 0 0 empty empty Spread 50 -8 0 10 -203904
-1 -1 1400 1;
#X msg 934 -32 0;
#X obj 925 195 metro 100;
#X obj 932 436 hsl 128 8 0.01 1 1 0 empty empty Rs 135 5 0 10 -203904
-258113 -1 12190 1;
#X obj 962 353 route 0 1 2 3 4 5 6 7;
#X obj 962 330 vbap 0 0 0;
#X obj 925 -87 loadbang;
#X msg -69 -30 \; pd dsp 1;
#X msg 773 -50 playlist6.txt;
#X msg 622 -50 playlist5.txt;
#X msg 471 -50 playlist4.txt;
#X msg 320 -50 playlist3.txt;
#X msg 169 -50 playlist2.txt;
#X msg 18 -50 playlist1.txt;
#X obj 847 578 +~;
#X obj 847 600 *~ 0.5;
#X obj 1132 69 ctlin 87 1;
#X msg 931 -8 1;
#X obj 1006 301 * 90;
#X obj 1132 90 / 127;
#X obj 1132 112 * 127;
#X obj 1132 133 ctlout 87 1;
#X obj 1221 -7 ctlin 7 1;
#X obj 1221 13 / 12.7;
#X obj 1221 34 - 5;
#X obj 1221 59 + 5;
#X obj 1221 81 * 12.7;
#X obj 1221 103 ctlout 7 1;
#X obj 1003 196 - 1;
#X obj 968 -34 ctlin 39 1;
#X obj 932 480 hsl 128 8 0.01 1 1 0 empty empty C 135 5 0 10 -203904
-258113 -1 0 1;
#X obj 932 546 hsl 128 8 0.01 1 1 0 empty empty R 135 5 0 10 -203904
-258113 -1 0 1;
#X obj 932 524 hsl 128 8 0.01 1 1 0 empty empty Rb 135 5 0 10 -203904
-258113 -1 0 1;
#X obj 932 513 hsl 128 8 0.01 1 1 0 empty empty Lb 135 5 0 10 -203904
-258113 -1 0 1;
#X obj 932 502 hsl 128 8 0.01 1 1 0 empty empty Ls 135 5 0 10 -203904
-258113 -1 12633 1;
#X obj 932 491 hsl 128 8 0.01 1 1 0 empty empty L 135 5 0 10 -203904
-258113 -1 8496 1;
#X obj 932 557 hsl 128 8 0.01 1 1 0 empty empty Up 135 5 0 10 -203904
-258113 -1 0 1;
#X obj 932 535 hsl 128 8 0.01 1 1 0 empty empty Rs 135 5 0 10 -203904
-258113 -1 0 1;
#X obj 1106 407 route 0 1 2 3 4 5 6 7;
#X obj 1106 384 vbap 0 0 0;
#X obj 1062 256 hsl 128 15 0 100 0 0 empty empty Spread 50 -8 0 10
-203904 -1 -1 0 1;
#X obj 1063 223 hsl 128 15 -100 100 0 0 empty empty L<-------PAN------->R
1 -8 0 10 -203904 -1 -1 700 1;
#X obj 1081 327 * -1;
#X msg 1055 193 0;
#X obj 1121 164 ctlin 40 1;
#X obj 1231 216 ctlin 8 1;
#X obj 1231 326 ctlout 8 1;
#X obj 1142 356 ctlout 88 1;
#X obj 1142 292 ctlin 88 1;
#X obj 1142 313 / 1.27;
#X obj 1142 335 * 1.27;
#X msg 1027 229 0;
#X obj 1231 236 / 0.635;
#X obj 1231 257 - 100;
#X obj 1231 282 + 100;
#X obj 1231 304 * 0.635;
#X msg 962 -68 define_loudspeakers 3 0 0 30 0 100 0 150 0 -150 0 -100
0 -30 0 0 90;
#X obj 169 -30 CueFrogPlaylist 43;
#X obj 320 -30 CueFrogPlaylist 44;
#X obj 471 -30 CueFrogPlaylist 45;
#X obj 773 -30 CueFrogPlaylist 47;
#X obj 622 -30 CueFrogPlaylist 46;
#X obj 169 844 CueFrogController 43;
#X obj 320 844 CueFrogController 44;
#X obj 471 844 CueFrogController 45;
#X obj 773 844 CueFrogController 47;
#X obj 622 844 CueFrogController 46;
#X obj 124 755 catch~ C;
#X obj 188 755 catch~ L;
#X obj 252 755 catch~ Ls;
#X obj 323 755 catch~ Lb;
#X obj 394 755 catch~ Rb;
#X obj 465 755 catch~ Rs;
#X obj 536 755 catch~ R;
#X obj 600 755 catch~ CR;
#X obj 124 779 dac~ 9;
#X obj 188 779 dac~ 10;
#X obj 252 779 dac~ 11;
#X obj 323 779 dac~ 12;
#X obj 394 779 dac~ 13;
#X obj 465 779 dac~ 14;
#X obj 536 779 dac~ 15;
#X obj 600 779 dac~ 16;
#X obj 18 605 throw~ Lefts;
#X obj 70 580 throw~ Rights;
#X obj 168 605 throw~ Lefts;
#X obj 220 580 throw~ Rights;
#X obj 319 605 throw~ Lefts;
#X obj 371 580 throw~ Rights;
#X obj 78 636 catch~ Lefts;
#X obj 77 721 throw~ C;
#X obj 87 701 throw~ Ls;
#X obj 97 680 throw~ Rs;
#X obj 106 659 throw~ CR;
#X obj 188 636 catch~ Rights;
#X obj 216 659 throw~ L;
#X obj 207 680 throw~ Lb;
#X obj 197 701 throw~ Rb;
#X obj 187 721 throw~ R;
#X obj 622 704 throw~ L;
#X obj 678 662 throw~ C;
#X obj 706 641 throw~ LFE;
#X obj 313 637 catch~ LFE;
#X obj 314 661 lop~ 120;
#X obj 313 710 throw~ L;
#X obj 322 690 throw~ R;
#X obj 650 683 throw~ R;
#X obj 734 620 throw~ Ls;
#X obj 762 599 throw~ Rs;
#X obj 827 772 throw~ L;
#X obj 793 792 throw~ C;
#X obj 861 752 throw~ Ls;
#X obj 892 732 throw~ Lb;
#X obj 923 712 throw~ Rb;
#X obj 954 691 throw~ Rs;
#X obj 985 671 throw~ R;
#X obj 1015 628 *~;
#X obj 1015 650 throw~ CR;
#X obj 1224 722 *~;
#X obj 1193 743 *~;
#X obj 1162 763 *~;
#X obj 1131 783 *~;
#X obj 1097 804 *~;
#X obj 1063 824 *~;
#X obj 1255 702 *~;
#X obj 1117 631 +~;
#X obj 1117 653 *~ 0.5;
#X obj 1097 825 throw~ L;
#X obj 1063 845 throw~ C;
#X obj 1131 805 throw~ Ls;
#X obj 1162 785 throw~ Lb;
#X obj 1193 765 throw~ Rb;
#X obj 1224 744 throw~ Rs;
#X obj 1255 724 throw~ R;
#X obj 1285 681 *~;
#X obj 1285 703 throw~ CR;
#X obj 169 27 CueFrogPlayer~ 43;
#X obj 320 27 CueFrogPlayer~ 44;
#X obj 471 27 CueFrogPlayer~ 45;
#X obj 773 27 CueFrogPlayer~ 47;
#X connect 0 0 10 0;
#X connect 1 0 99 0;
#X connect 2 0 100 0;
#X connect 3 0 102 0;
#X connect 4 0 0 0;
#X connect 4 0 6 0;
#X connect 4 0 1 0;
#X connect 4 0 2 0;
#X connect 4 0 3 0;
#X connect 4 0 13 0;
#X connect 5 0 119 0;
#X connect 5 1 120 0;
#X connect 6 0 98 0;
#X connect 8 0 9 0;
#X connect 8 0 43 0;
#X connect 9 0 49 0;
#X connect 9 0 48 0;
#X connect 9 0 47 0;
#X connect 9 0 46 0;
#X connect 9 0 44 0;
#X connect 9 0 45 0;
#X connect 11 0 135 0;
#X connect 11 1 142 0;
#X connect 11 2 136 0;
#X connect 11 3 137 0;
#X connect 11 4 143 0;
#X connect 11 5 144 0;
#X connect 13 0 101 0;
#X connect 14 0 41 1;
#X connect 15 0 41 3;
#X connect 16 0 150 0;
#X connect 17 0 149 0;
#X connect 18 0 148 0;
#X connect 19 0 147 0;
#X connect 20 0 145 0;
#X connect 21 0 146 0;
#X connect 22 0 151 0;
#X connect 30 0 38 0;
#X connect 31 0 38 0;
#X connect 31 0 38 0;
#X connect 32 0 33 0;
#X connect 32 0 64 0;
#X connect 33 0 14 0;
#X connect 34 0 61 0;
#X connect 34 0 64 1;
#X connect 35 0 54 0;
#X connect 35 0 56 0;
#X connect 36 0 15 0;
#X connect 37 0 34 0;
#X connect 37 0 36 0;
#X connect 38 0 32 0;
#X connect 38 0 41 0;
#X connect 38 0 75 0;
#X connect 40 0 23 0;
#X connect 40 0 21 1;
#X connect 40 1 28 0;
#X connect 40 1 20 1;
#X connect 40 2 27 0;
#X connect 40 2 19 1;
#X connect 40 3 26 0;
#X connect 40 3 18 1;
#X connect 40 4 25 0;
#X connect 40 4 17 1;
#X connect 40 5 39 0;
#X connect 40 5 16 1;
#X connect 40 6 24 0;
#X connect 40 6 22 1;
#X connect 40 7 29 0;
#X connect 40 7 152 1;
#X connect 41 0 40 0;
#X connect 42 0 30 0;
#X connect 42 0 92 0;
#X connect 42 0 37 0;
#X connect 42 0 53 0;
#X connect 42 0 79 0;
#X connect 42 0 87 0;
#X connect 44 0 96 0;
#X connect 45 0 97 0;
#X connect 46 0 95 0;
#X connect 47 0 94 0;
#X connect 48 0 93 0;
#X connect 49 0 7 0;
#X connect 50 0 51 0;
#X connect 51 0 22 0;
#X connect 51 0 16 0;
#X connect 51 0 17 0;
#X connect 51 0 18 0;
#X connect 51 0 19 0;
#X connect 51 0 20 0;
#X connect 51 0 21 0;
#X connect 51 0 152 0;
#X connect 52 0 55 0;
#X connect 53 0 35 0;
#X connect 54 0 41 2;
#X connect 55 0 35 0;
#X connect 56 0 57 0;
#X connect 58 0 59 0;
#X connect 59 0 60 0;
#X connect 60 0 34 0;
#X connect 61 0 62 0;
#X connect 62 0 63 0;
#X connect 64 0 32 1;
#X connect 65 0 37 0;
#X connect 74 0 66 0;
#X connect 74 0 159 1;
#X connect 74 1 71 0;
#X connect 74 1 158 1;
#X connect 74 2 70 0;
#X connect 74 2 157 1;
#X connect 74 3 69 0;
#X connect 74 3 156 1;
#X connect 74 4 68 0;
#X connect 74 4 155 1;
#X connect 74 5 73 0;
#X connect 74 5 154 1;
#X connect 74 6 67 0;
#X connect 74 6 160 1;
#X connect 74 7 72 0;
#X connect 74 7 170 1;
#X connect 75 0 74 0;
#X connect 76 0 75 3;
#X connect 76 0 86 0;
#X connect 77 0 78 0;
#X connect 77 0 90 0;
#X connect 78 0 75 1;
#X connect 79 0 77 0;
#X connect 80 0 79 0;
#X connect 81 0 88 0;
#X connect 84 0 85 0;
#X connect 85 0 76 0;
#X connect 86 0 83 0;
#X connect 87 0 76 0;
#X connect 88 0 89 0;
#X connect 89 0 77 0;
#X connect 90 0 91 0;
#X connect 91 0 82 0;
#X connect 92 0 41 0;
#X connect 92 0 75 0;
#X connect 103 0 111 0;
#X connect 104 0 112 0;
#X connect 105 0 113 0;
#X connect 106 0 114 0;
#X connect 107 0 115 0;
#X connect 108 0 116 0;
#X connect 109 0 117 0;
#X connect 110 0 118 0;
#X connect 125 0 126 0;
#X connect 125 0 127 0;
#X connect 125 0 128 0;
#X connect 125 0 129 0;
#X connect 130 0 131 0;
#X connect 130 0 132 0;
#X connect 130 0 133 0;
#X connect 130 0 134 0;
#X connect 138 0 139 0;
#X connect 139 0 140 0;
#X connect 139 0 141 0;
#X connect 152 0 153 0;
#X connect 154 0 168 0;
#X connect 155 0 167 0;
#X connect 156 0 166 0;
#X connect 157 0 165 0;
#X connect 158 0 163 0;
#X connect 159 0 164 0;
#X connect 160 0 169 0;
#X connect 161 0 162 0;
#X connect 162 0 160 0;
#X connect 162 0 154 0;
#X connect 162 0 155 0;
#X connect 162 0 156 0;
#X connect 162 0 157 0;
#X connect 162 0 158 0;
#X connect 162 0 159 0;
#X connect 162 0 170 0;
#X connect 170 0 171 0;
#X connect 172 0 121 0;
#X connect 172 1 122 0;
#X connect 173 0 123 0;
#X connect 173 1 124 0;
#X connect 174 0 161 0;
#X connect 174 1 161 1;
#X connect 175 0 50 0;
#X connect 175 1 50 1;
